<svg width="38" height="19" viewBox="0 0 38 19" fill="none" xmlns="http://www.w3.org/2000/svg">
<path d="M13.875 5.8C13.475 5.06667 12.925 4.50833 12.225 4.125C11.525 3.74167 10.7083 3.55 9.775 3.55C8.74167 3.55 7.825 3.78333 7.025 4.25C6.225 4.71667 5.6 5.38333 5.15 6.25C4.7 7.11667 4.475 8.11667 4.475 9.25C4.475 10.4167 4.7 11.4333 5.15 12.3C5.61667 13.1667 6.25833 13.8333 7.075 14.3C7.89167 14.7667 8.84167 15 9.925 15C11.2583 15 12.35 14.65 13.2 13.95C14.05 13.2333 14.6083 12.2417 14.875 10.975H8.875V8.3H18.325V11.35C18.0917 12.5667 17.5917 13.6917 16.825 14.725C16.0583 15.7583 15.0667 16.5917 13.85 17.225C12.65 17.8417 11.3 18.15 9.8 18.15C8.11667 18.15 6.59167 17.775 5.225 17.025C3.875 16.2583 2.80833 15.2 2.025 13.85C1.25833 12.5 0.875 10.9667 0.875 9.25C0.875 7.53333 1.25833 6 2.025 4.65C2.80833 3.28333 3.875 2.225 5.225 1.475C6.59167 0.708333 8.10833 0.325 9.775 0.325C11.7417 0.325 13.45 0.808333 14.9 1.775C16.35 2.725 17.35 4.06667 17.9 5.8H13.875ZM29.0145 18.175C27.3811 18.175 25.8811 17.7917 24.5145 17.025C23.1478 16.2583 22.0645 15.2 21.2645 13.85C20.4645 12.4833 20.0645 10.9417 20.0645 9.225C20.0645 7.525 20.4645 6 21.2645 4.65C22.0645 3.28333 23.1478 2.21667 24.5145 1.45C25.8811 0.683333 27.3811 0.3 29.0145 0.3C30.6645 0.3 32.1645 0.683333 33.5145 1.45C34.8811 2.21667 35.9561 3.28333 36.7395 4.65C37.5395 6 37.9395 7.525 37.9395 9.225C37.9395 10.9417 37.5395 12.4833 36.7395 13.85C35.9561 15.2 34.8811 16.2583 33.5145 17.025C32.1478 17.7917 30.6478 18.175 29.0145 18.175ZM29.0145 15.05C30.0645 15.05 30.9895 14.8167 31.7895 14.35C32.5895 13.8667 33.2145 13.1833 33.6645 12.3C34.1145 11.4167 34.3395 10.3917 34.3395 9.225C34.3395 8.05833 34.1145 7.04167 33.6645 6.175C33.2145 5.29167 32.5895 4.61667 31.7895 4.15C30.9895 3.68333 30.0645 3.45 29.0145 3.45C27.9645 3.45 27.0311 3.68333 26.2145 4.15C25.4145 4.61667 24.7895 5.29167 24.3395 6.175C23.8895 7.04167 23.6645 8.05833 23.6645 9.225C23.6645 10.3917 23.8895 11.4167 24.3395 12.3C24.7895 13.1833 25.4145 13.8667 26.2145 14.35C27.0311 14.8167 27.9645 15.05 29.0145 15.05Z" fill="url(#paint0_linear)"/>
<defs>
<linearGradient id="paint0_linear" x1="-14.8835" y1="0.95238" x2="69.4562" y2="0.95238" gradientUnits="userSpaceOnUse">
<stop stop-color="#7D9EF2"/>
<stop offset="1" stop-color="#B640E0" stop-opacity="0.67"/>
</linearGradient>
</defs>
</svg>
