<svg width="62" height="36" viewBox="0 0 62 36" fill="none" xmlns="http://www.w3.org/2000/svg">
<g filter="url(#filter0_d)">
<path d="M4 0.406921H9.59076V27.0933H4V0.406921Z" fill="#EEF1EF"/>
<path d="M20.1543 12.7006C19.6741 8.63345 19.4069 6.37273 19.3543 5.9215C19.1202 3.74435 18.8973 1.84978 18.6841 0.233246C18.2001 0.233246 15.7851 0.233246 11.4355 0.233246V26.9197H16.3328L16.35 9.2989L18.4108 26.9197H21.8991L23.8533 8.90692L23.8717 26.9197H28.7531V0.233246H21.4494L20.1543 12.7006Z" fill="#EEF1EF"/>
<path d="M37.9822 5.78476C38.0434 6.12509 38.0753 6.89689 38.0753 8.10321C38.0753 9.13786 38.0753 17.415 38.0753 18.4496C38.0753 20.2257 37.9822 21.3135 37.7972 21.7146C37.6109 22.1157 37.1159 22.3147 36.3134 22.3147C36.3134 20.563 36.3134 6.54897 36.3134 4.79722C36.9224 4.79722 37.3377 4.87774 37.5583 5.03575C37.7788 5.19528 37.9209 5.44444 37.9822 5.78476ZM40.5074 26.6478C41.1727 26.467 41.7314 26.1479 42.1848 25.6937C42.6369 25.2379 42.9542 24.6074 43.1355 23.8006C43.3181 22.9954 43.4259 21.3956 43.4259 19.0027C43.4259 18.0668 43.4259 10.569 43.4259 9.63163C43.4259 7.10655 43.3463 5.41406 43.2225 4.55413C43.0976 3.69269 42.7876 2.91025 42.2914 2.20833C41.7939 1.50642 41.0686 1.00201 40.1153 0.695113C39.1609 0.388214 37.6048 0.233246 34.8983 0.233246C34.6201 0.233246 33.2307 0.233246 30.7275 0.233246V26.9197H37.5007C39.0616 26.859 40.0639 26.7693 40.5074 26.6478Z" fill="#EEF1EF"/>
<path d="M52.451 22.6588C52.3481 22.9976 51.8972 23.1693 51.5565 23.1693C51.2233 23.1693 51.0015 23.0052 50.8888 22.6755C50.7761 22.3473 50.7209 21.5983 50.7209 20.4254C50.7209 19.7205 50.7209 14.0778 50.7209 13.3729C50.7209 12.1574 50.7699 11.3993 50.8692 11.097C50.9672 10.7976 51.1828 10.6457 51.5161 10.6457C51.8567 10.6457 52.3137 10.8174 52.4314 11.1623C52.5478 11.5072 52.6066 12.244 52.6066 13.3729C52.6066 13.8286 52.6066 16.1076 52.6066 20.2112C52.571 21.6166 52.5196 22.4324 52.451 22.6588ZM45.3348 26.6865H50.3681C50.5776 25.667 50.6928 25.1003 50.716 24.9864C51.1718 25.6701 51.6729 26.1836 52.2231 26.5239C52.7708 26.8657 53.5904 27.0359 54.2251 27.0359C55.1085 27.0359 55.8706 26.7488 56.5139 26.1729C57.1559 25.5986 57.5651 24.918 57.7391 24.1356C57.9131 23.3516 58.0001 22.1605 58.0001 20.5591C58.0001 19.8101 58.0001 13.8211 58.0001 13.072C58.0001 11.4616 57.9707 10.4102 57.9131 9.91646C57.8555 9.42268 57.684 8.9198 57.3985 8.40475C57.113 7.88971 56.6976 7.49014 56.1536 7.20451C55.6096 6.91888 54.9676 6.77607 54.2276 6.77607C53.5843 6.77607 52.761 6.93559 52.212 7.25009C51.6644 7.56458 51.1669 8.04164 50.7209 8.68127C50.7209 8.10241 50.7209 5.20967 50.7209 0H45.3348V26.6865Z" fill="#EEF1EF"/>
</g>
<defs>
<filter id="filter0_d" x="0" y="0" width="62.0001" height="35.0933" filterUnits="userSpaceOnUse" color-interpolation-filters="sRGB">
<feFlood flood-opacity="0" result="BackgroundImageFix"/>
<feColorMatrix in="SourceAlpha" type="matrix" values="0 0 0 0 0 0 0 0 0 0 0 0 0 0 0 0 0 0 127 0"/>
<feOffset dy="4"/>
<feGaussianBlur stdDeviation="2"/>
<feColorMatrix type="matrix" values="0 0 0 0 0 0 0 0 0 0 0 0 0 0 0 0 0 0 0.25 0"/>
<feBlend mode="normal" in2="BackgroundImageFix" result="effect1_dropShadow"/>
<feBlend mode="normal" in="SourceGraphic" in2="effect1_dropShadow" result="shape"/>
</filter>
</defs>
</svg>
