<svg width="47" height="17" viewBox="0 0 47 17" fill="none" xmlns="http://www.w3.org/2000/svg">
<path d="M0.127302 13H7.57617V10.9716H2.58753V1.36364H0.127302V13ZM14.4632 13.1705C17.1109 13.1705 18.7586 11.358 18.7586 8.67045C18.7586 5.96591 17.1109 4.15909 14.4632 4.15909C11.8154 4.15909 10.1677 5.96591 10.1677 8.67045C10.1677 11.358 11.8154 13.1705 14.4632 13.1705ZM14.4745 11.2955C13.2529 11.2955 12.6279 10.1761 12.6279 8.65341C12.6279 7.13068 13.2529 6.00568 14.4745 6.00568C15.6734 6.00568 16.2984 7.13068 16.2984 8.65341C16.2984 10.1761 15.6734 11.2955 14.4745 11.2955ZM25.6243 16.4545C28.1186 16.4545 29.8913 15.3182 29.8913 13.0852V4.27273H27.4879V5.73864H27.397C27.0732 5.02841 26.3629 4.15909 24.9027 4.15909C22.9879 4.15909 21.3686 5.64773 21.3686 8.61932C21.3686 11.5227 22.9425 12.875 24.9084 12.875C26.3004 12.875 27.0788 12.1761 27.397 11.4545H27.4993V13.0511C27.4993 14.25 26.7322 14.7159 25.6811 14.7159C24.6129 14.7159 24.0732 14.25 23.8743 13.7216L21.6357 14.0227C21.9254 15.3977 23.272 16.4545 25.6243 16.4545ZM25.6754 11.0568C24.4879 11.0568 23.8402 10.1136 23.8402 8.60795C23.8402 7.125 24.4766 6.08523 25.6754 6.08523C26.8516 6.08523 27.5107 7.07955 27.5107 8.60795C27.5107 10.1477 26.8402 11.0568 25.6754 11.0568ZM33.1775 13H35.5979V4.27273H33.1775V13ZM34.3934 3.14773C35.115 3.14773 35.7059 2.59659 35.7059 1.92045C35.7059 1.25 35.115 0.698863 34.3934 0.698863C33.6775 0.698863 33.0866 1.25 33.0866 1.92045C33.0866 2.59659 33.6775 3.14773 34.3934 3.14773ZM41.3173 7.95455C41.323 6.82955 41.9934 6.17045 42.9707 6.17045C43.9423 6.17045 44.5275 6.80682 44.5218 7.875V13H46.9423V7.44318C46.9423 5.40909 45.7491 4.15909 43.9309 4.15909C42.6355 4.15909 41.698 4.79545 41.3059 5.8125H41.2037V4.27273H38.8968V13H41.3173V7.95455Z" fill="#EEF1EF"/>
</svg>
