<svg width="14" height="15" viewBox="0 0 14 15" fill="none" xmlns="http://www.w3.org/2000/svg">
<g clip-path="url(#clip0)">
<path d="M3.0765 6.5625C3.68221 6.5625 4.27431 6.75494 4.77793 7.11549C5.28156 7.47604 5.67409 7.9885 5.90588 8.58807C6.13767 9.18764 6.19832 9.84739 6.08015 10.4839C5.96199 11.1204 5.67031 11.7051 5.24201 12.1639C4.81372 12.6228 4.26803 12.9353 3.67396 13.062C3.0799 13.1886 2.46413 13.1236 1.90453 12.8752C1.34493 12.6269 0.866636 12.2063 0.530124 11.6667C0.193613 11.1271 0.014 10.4927 0.014 9.84375L0 9.375C0 7.63452 0.645311 5.96532 1.79397 4.73461C2.94263 3.5039 4.50055 2.8125 6.125 2.8125V4.6875C5.55021 4.68584 4.98082 4.80629 4.44975 5.04187C3.91868 5.27746 3.43647 5.6235 3.031 6.06C2.87341 6.22853 2.72803 6.40968 2.59613 6.60187C2.75275 6.57562 2.91288 6.56156 3.07563 6.56156L3.0765 6.5625ZM10.9515 6.5625C11.5572 6.5625 12.1493 6.75494 12.6529 7.11549C13.1566 7.47604 13.5491 7.9885 13.7809 8.58807C14.0127 9.18764 14.0733 9.84739 13.9552 10.4839C13.837 11.1204 13.5453 11.7051 13.117 12.1639C12.6887 12.6228 12.143 12.9353 11.549 13.062C10.9549 13.1886 10.3391 13.1236 9.77953 12.8752C9.21993 12.6269 8.74164 12.2063 8.40512 11.6667C8.06861 11.1271 7.889 10.4927 7.889 9.84375L7.875 9.375C7.875 7.63452 8.52031 5.96532 9.66897 4.73461C10.8176 3.5039 12.3755 2.8125 14 2.8125V4.6875C13.4252 4.68584 12.8558 4.80629 12.3248 5.04187C11.7937 5.27746 11.3115 5.6235 10.906 6.06C10.7484 6.22853 10.603 6.40968 10.4711 6.60187C10.6278 6.57562 10.7879 6.56156 10.9515 6.56156V6.5625Z" fill="white"/>
</g>
<defs>
<clipPath id="clip0">
<rect width="14" height="15" fill="white"/>
</clipPath>
</defs>
</svg>
