<svg width="14" height="10" viewBox="0 0 14 10" fill="none" xmlns="http://www.w3.org/2000/svg">
<path d="M10.9266 6.36364C10.3215 6.36364 9.72996 6.17703 9.22684 5.8274C8.72372 5.47778 8.33158 4.98085 8.10002 4.39945C7.86846 3.81805 7.80787 3.17829 7.92592 2.56108C8.04397 1.94387 8.33535 1.37692 8.76322 0.931934C9.19109 0.486949 9.73623 0.18391 10.3297 0.0611392C10.9232 -0.061632 11.5383 0.00137863 12.0974 0.242203C12.6564 0.483027 13.1342 0.890849 13.4704 1.4141C13.8066 1.93734 13.986 2.55252 13.986 3.18182L14 3.63636C14 4.47205 13.8417 5.29955 13.5342 6.07162C13.2267 6.84369 12.776 7.54522 12.2078 8.13613C11.6396 8.72705 10.9651 9.19579 10.2227 9.5156C9.48034 9.8354 8.68466 10 7.88112 10V8.18182C8.45533 8.18342 9.02415 8.06663 9.55469 7.83818C10.0852 7.60974 10.567 7.27418 10.972 6.85091C11.1295 6.68749 11.2747 6.51183 11.4065 6.32546C11.2477 6.3514 11.0873 6.36447 10.9266 6.36455V6.36364ZM3.05944 6.36364C2.45434 6.36364 1.86283 6.17703 1.35971 5.8274C0.856585 5.47778 0.464449 4.98085 0.232887 4.39945C0.00132563 3.81805 -0.0592615 3.17829 0.0587877 2.56108C0.176837 1.94387 0.46822 1.37692 0.896091 0.931934C1.32396 0.486949 1.8691 0.18391 2.46257 0.0611392C3.05605 -0.061632 3.6712 0.00137863 4.23024 0.242203C4.78928 0.483027 5.2671 0.890849 5.60327 1.4141C5.93945 1.93734 6.11888 2.55252 6.11888 3.18182L6.13287 3.63636C6.13287 5.32411 5.4882 6.94272 4.34069 8.13613C3.19318 9.32955 1.63682 10 0.0139874 10V8.18182C0.588199 8.18342 1.15702 8.06663 1.68756 7.83818C2.2181 7.60974 2.69983 7.27418 3.1049 6.85091C3.26233 6.68749 3.40756 6.51183 3.53934 6.32546C3.38059 6.3514 3.22014 6.36447 3.05944 6.36455V6.36364Z" fill="#FFF9F9"/>
</svg>
