<svg width="86" height="16" viewBox="0 0 86 16" fill="none" xmlns="http://www.w3.org/2000/svg">
<path d="M5.2 15.14C4.22667 15.14 3.34667 14.9733 2.56 14.64C1.78667 14.3067 1.17333 13.8267 0.72 13.2C0.266667 12.5733 0.0333334 11.8333 0.0200001 10.98H3.02C3.06 11.5533 3.26 12.0067 3.62 12.34C3.99333 12.6733 4.5 12.84 5.14 12.84C5.79333 12.84 6.30667 12.6867 6.68 12.38C7.05333 12.06 7.24 11.6467 7.24 11.14C7.24 10.7267 7.11333 10.3867 6.86 10.12C6.60667 9.85333 6.28667 9.64667 5.9 9.5C5.52667 9.34 5.00667 9.16667 4.34 8.98C3.43333 8.71333 2.69333 8.45333 2.12 8.2C1.56 7.93333 1.07333 7.54 0.66 7.02C0.26 6.48667 0.0600001 5.78 0.0600001 4.9C0.0600001 4.07333 0.266667 3.35333 0.68 2.74C1.09333 2.12667 1.67333 1.66 2.42 1.34C3.16667 1.00667 4.02 0.84 4.98 0.84C6.42 0.84 7.58667 1.19333 8.48 1.9C9.38667 2.59333 9.88667 3.56667 9.98 4.82H6.9C6.87333 4.34 6.66667 3.94667 6.28 3.64C5.90667 3.32 5.40667 3.16 4.78 3.16C4.23333 3.16 3.79333 3.3 3.46 3.58C3.14 3.86 2.98 4.26667 2.98 4.8C2.98 5.17333 3.1 5.48667 3.34 5.74C3.59333 5.98 3.9 6.18 4.26 6.34C4.63333 6.48667 5.15333 6.66 5.82 6.86C6.72667 7.12667 7.46667 7.39333 8.04 7.66C8.61333 7.92667 9.10667 8.32667 9.52 8.86C9.93333 9.39333 10.14 10.0933 10.14 10.96C10.14 11.7067 9.94667 12.4 9.56 13.04C9.17333 13.68 8.60667 14.1933 7.86 14.58C7.11333 14.9533 6.22667 15.14 5.2 15.14ZM22.8675 9.22C22.8675 9.62 22.8408 9.98 22.7875 10.3H14.6875C14.7542 11.1 15.0342 11.7267 15.5275 12.18C16.0208 12.6333 16.6275 12.86 17.3475 12.86C18.3875 12.86 19.1275 12.4133 19.5675 11.52H22.5875C22.2675 12.5867 21.6542 13.4667 20.7475 14.16C19.8408 14.84 18.7275 15.18 17.4075 15.18C16.3408 15.18 15.3808 14.9467 14.5275 14.48C13.6875 14 13.0275 13.3267 12.5475 12.46C12.0808 11.5933 11.8475 10.5933 11.8475 9.46C11.8475 8.31333 12.0808 7.30667 12.5475 6.44C13.0142 5.57333 13.6675 4.90667 14.5075 4.44C15.3475 3.97333 16.3142 3.74 17.4075 3.74C18.4608 3.74 19.4008 3.96667 20.2275 4.42C21.0675 4.87333 21.7142 5.52 22.1675 6.36C22.6342 7.18667 22.8675 8.14 22.8675 9.22ZM19.9675 8.42C19.9542 7.7 19.6942 7.12667 19.1875 6.7C18.6808 6.26 18.0608 6.04 17.3275 6.04C16.6342 6.04 16.0475 6.25333 15.5675 6.68C15.1008 7.09333 14.8142 7.67333 14.7075 8.42H19.9675ZM24.1912 9.42C24.1912 8.3 24.4112 7.30667 24.8512 6.44C25.3046 5.57333 25.9113 4.90667 26.6713 4.44C27.4446 3.97333 28.3046 3.74 29.2513 3.74C30.0779 3.74 30.7979 3.90667 31.4113 4.24C32.0379 4.57333 32.5379 4.99333 32.9113 5.5V3.92H35.7313V15H32.9113V13.38C32.5513 13.9 32.0513 14.3333 31.4113 14.68C30.7846 15.0133 30.0579 15.18 29.2313 15.18C28.2979 15.18 27.4446 14.94 26.6713 14.46C25.9113 13.98 25.3046 13.3067 24.8512 12.44C24.4112 11.56 24.1912 10.5533 24.1912 9.42ZM32.9113 9.46C32.9113 8.78 32.7779 8.2 32.5113 7.72C32.2446 7.22667 31.8846 6.85333 31.4313 6.6C30.9779 6.33333 30.4913 6.2 29.9713 6.2C29.4513 6.2 28.9713 6.32667 28.5312 6.58C28.0913 6.83333 27.7313 7.20667 27.4513 7.7C27.1846 8.18 27.0513 8.75333 27.0513 9.42C27.0513 10.0867 27.1846 10.6733 27.4513 11.18C27.7313 11.6733 28.0913 12.0533 28.5312 12.32C28.9846 12.5867 29.4646 12.72 29.9713 12.72C30.4913 12.72 30.9779 12.5933 31.4313 12.34C31.8846 12.0733 32.2446 11.7 32.5113 11.22C32.7779 10.7267 32.9113 10.14 32.9113 9.46ZM41.2659 5.64C41.6259 5.05333 42.0926 4.59333 42.6659 4.26C43.2526 3.92667 43.9193 3.76 44.6659 3.76V6.7H43.9259C43.0459 6.7 42.3793 6.90667 41.9259 7.32C41.4859 7.73333 41.2659 8.45333 41.2659 9.48V15H38.4659V3.92H41.2659V5.64ZM45.8319 9.46C45.8319 8.31333 46.0652 7.31333 46.5319 6.46C46.9985 5.59333 47.6452 4.92667 48.4719 4.46C49.2985 3.98 50.2452 3.74 51.3119 3.74C52.6852 3.74 53.8185 4.08667 54.7119 4.78C55.6185 5.46 56.2252 6.42 56.5319 7.66H53.5119C53.3519 7.18 53.0785 6.80667 52.6919 6.54C52.3185 6.26 51.8519 6.12 51.2919 6.12C50.4919 6.12 49.8585 6.41333 49.3919 7C48.9252 7.57333 48.6919 8.39333 48.6919 9.46C48.6919 10.5133 48.9252 11.3333 49.3919 11.92C49.8585 12.4933 50.4919 12.78 51.2919 12.78C52.4252 12.78 53.1652 12.2733 53.5119 11.26H56.5319C56.2252 12.46 55.6185 13.4133 54.7119 14.12C53.8052 14.8267 52.6719 15.18 51.3119 15.18C50.2452 15.18 49.2985 14.9467 48.4719 14.48C47.6452 14 46.9985 13.3333 46.5319 12.48C46.0652 11.6133 45.8319 10.6067 45.8319 9.46ZM64.8231 3.76C65.6631 3.76 66.4098 3.94667 67.0631 4.32C67.7165 4.68 68.2231 5.22 68.5831 5.94C68.9565 6.64667 69.1431 7.5 69.1431 8.5V15H66.3431V8.88C66.3431 8 66.1231 7.32667 65.6831 6.86C65.2431 6.38 64.6431 6.14 63.8831 6.14C63.1098 6.14 62.4965 6.38 62.0431 6.86C61.6031 7.32667 61.3831 8 61.3831 8.88V15H58.5831V0.2H61.3831V5.3C61.7431 4.82 62.2231 4.44667 62.8231 4.18C63.4231 3.9 64.0898 3.76 64.8231 3.76ZM73.0458 15.14C72.5391 15.14 72.1191 14.9867 71.7858 14.68C71.4658 14.36 71.3058 13.9667 71.3058 13.5C71.3058 13.0333 71.4658 12.6467 71.7858 12.34C72.1191 12.02 72.5391 11.86 73.0458 11.86C73.5391 11.86 73.9458 12.02 74.2658 12.34C74.5858 12.6467 74.7458 13.0333 74.7458 13.5C74.7458 13.9667 74.5858 14.36 74.2658 14.68C73.9458 14.9867 73.5391 15.14 73.0458 15.14ZM78.2411 15.14C77.7344 15.14 77.3144 14.9867 76.9811 14.68C76.6611 14.36 76.5011 13.9667 76.5011 13.5C76.5011 13.0333 76.6611 12.6467 76.9811 12.34C77.3144 12.02 77.7344 11.86 78.2411 11.86C78.7344 11.86 79.1411 12.02 79.4611 12.34C79.7811 12.6467 79.9411 13.0333 79.9411 13.5C79.9411 13.9667 79.7811 14.36 79.4611 14.68C79.1411 14.9867 78.7344 15.14 78.2411 15.14ZM83.4364 15.14C82.9297 15.14 82.5097 14.9867 82.1764 14.68C81.8564 14.36 81.6964 13.9667 81.6964 13.5C81.6964 13.0333 81.8564 12.6467 82.1764 12.34C82.5097 12.02 82.9297 11.86 83.4364 11.86C83.9297 11.86 84.3364 12.02 84.6564 12.34C84.9764 12.6467 85.1364 13.0333 85.1364 13.5C85.1364 13.9667 84.9764 14.36 84.6564 14.68C84.3364 14.9867 83.9297 15.14 83.4364 15.14Z" fill="white" fill-opacity="0.6"/>
</svg>
